# xmcd CD database file
#
# Track frame offsets:
#	150
#	20710
#	42676
#	62656
#	88574
#	119823
#	136578
#	155472
#	174723
#	194272
#	217619
#	240509
#	271158
#	290712
#	318879
#	337166
#
# Disc length: 4749 seconds
#
# Revision: 0
# Processed by: cddbd v1.4PL0 Copyright (c) Steve Scherf et al.
# Submitted via: Feurio! 1.65 - http://www.feurio.com
#
DISCID=ec128b10
DTITLE=US Local Hereos - Best of CD 03
DYEAR=2002
DGENRE=Blues
TTITLE0=Bill Davis Band - Mustang Sally
TTITLE1=Black Diamond - Friends
TTITLE2=Blue Angel - Undertow
TTITLE3=Blues Notions - This is it
TTITLE4=Blues Planet - River Blues
TTITLE5=Buck Naked Beavers - Purgatory Blues
TTITLE6=Chaotic Productions - Whamm
TTITLE7=Cissy Strut - Funky Soul
TTITLE8=Colored Stone - Lover's Blues
TTITLE9=Danny Baker Band - I could never let you go
TTITLE10=Danny Cowan Group - Driving back to Texas
TTITLE11=Exit 66 - Exit 66
TTITLE12=Feelmore - Tight Rope
TTITLE13=Frank Cosentino - Won't take it no more
TTITLE14=gtblues - I feel so bad my Baby went awa
TTITLE15=Jasper Mills Band - Mine Blues
EXTD=
EXTT0=
EXTT1=
EXTT2=
EXTT3=
EXTT4=
EXTT5=
EXTT6=
EXTT7=
EXTT8=
EXTT9=
EXTT10=
EXTT11=
EXTT12=
EXTT13=
EXTT14=
EXTT15=
PLAYORDER=
